<?xml version="1.0" encoding="utf-8"?>
<svg version="1.1" xmlns:xlink="http://www.w3.org/1999/xlink" width="10px" height="10px" xmlns="http://www.w3.org/2000/svg">
  <g transform="matrix(1 0 0 1 -300 -397 )">
    <path d="M 9.85045513654096 4.1222366710013  L 8.95318595578674 5  L 9.85045513654096 5.8777633289987  C 9.98049414824447 5.99913307325531  10.023840485479 6.15084525357607  9.98049414824447 6.33289986996099  C 9.92847854356307 6.51061985262245  9.81577806675336 6.62115301257044  9.64239271781534 6.66449934980494  L 8.42002600780234 6.97659297789337  L 8.76462938881664 8.18595578673602  C 8.81664499349805 8.36367576939749  8.77546597312527 8.51538794971825  8.64109232769831 8.64109232769831  C 8.51538794971825 8.77546597312527  8.36367576939749 8.81664499349805  8.18595578673602 8.76462938881664  L 6.97659297789337 8.42002600780234  L 6.66449934980494 9.64239271781534  C 6.62115301257044 9.81577806675336  6.51061985262245 9.92847854356307  6.33289986996099 9.98049414824447  C 6.28088426527958 9.98916341569137  6.23970524490681 9.99349804941482  6.20936280884265 9.99349804941482  C 6.07498916341569 9.99349804941482  5.96445600346771 9.94581707845687  5.8777633289987 9.85045513654096  L 5 8.95318595578674  L 4.1222366710013 9.85045513654096  C 4.00086692674469 9.98049414824447  3.84915474642393 10.023840485479  3.66710013003901 9.98049414824447  C 3.48938014737755 9.93281317728652  3.37884698742956 9.82011270047681  3.33550065019506 9.64239271781534  L 3.02340702210663 8.42002600780234  L 1.81404421326398 8.76462938881664  C 1.63632423060251 8.81664499349805  1.48461205028175 8.77546597312527  1.35890767230169 8.64109232769831  C 1.22453402687473 8.51538794971825  1.18335500650195 8.36367576939749  1.23537061118335 8.18595578673602  L 1.57997399219766 6.97659297789337  L 0.357607282184655 6.66449934980494  C 0.184221933246641 6.62115301257044  0.0715214564369311 6.51061985262245  0.0195058517555267 6.33289986996099  C -0.023840485478977 6.15084525357607  0.0195058517555267 5.99913307325531  0.149544863459038 5.8777633289987  L 1.04681404421326 5  L 0.149544863459038 4.1222366710013  C 0.0195058517555267 4.00086692674469  -0.023840485478977 3.84915474642393  0.0195058517555267 3.66710013003901  C 0.0715214564369311 3.48938014737755  0.184221933246641 3.37884698742956  0.357607282184655 3.33550065019506  L 1.57997399219766 3.02340702210663  L 1.23537061118335 1.81404421326398  C 1.18335500650195 1.63632423060251  1.22453402687473 1.48461205028175  1.35890767230169 1.35890767230169  C 1.48461205028175 1.22453402687473  1.63632423060251 1.18335500650195  1.81404421326398 1.23537061118336  L 3.02340702210663 1.57997399219766  L 3.33550065019506 0.357607282184655  C 3.37884698742956 0.179887299523189  3.48938014737755 0.0693541395752051  3.66710013003901 0.0260078023407018  C 3.84482011270048 -0.0260078023407018  3.99653229302124 0.0151712180320762  4.1222366710013 0.149544863459038  L 5 1.05331599479844  L 5.8777633289987 0.149544863459038  C 6.00346770697876 0.0195058517555269  6.15517988729952 -0.0216731686172533  6.33289986996099 0.0260078023407018  C 6.51061985262245 0.0693541395752051  6.62115301257044 0.179887299523189  6.66449934980494 0.357607282184655  L 6.97659297789337 1.57997399219766  L 8.18595578673602 1.23537061118336  C 8.36367576939749 1.18335500650195  8.51538794971825 1.22453402687473  8.64109232769831 1.35890767230169  C 8.77546597312527 1.48461205028175  8.81664499349805 1.63632423060251  8.76462938881664 1.81404421326398  L 8.42002600780234 3.02340702210663  L 9.64239271781534 3.33550065019506  C 9.81577806675336 3.37884698742956  9.92847854356307 3.48938014737755  9.98049414824447 3.66710013003901  C 10.023840485479 3.84915474642393  9.98049414824447 4.00086692674469  9.85045513654096 4.1222366710013  Z " fill-rule="nonzero" fill="#333333" stroke="none" transform="matrix(1 0 0 1 300 397 )" />
  </g>
</svg>