<?xml version="1.0" encoding="utf-8"?>
<svg version="1.1" xmlns:xlink="http://www.w3.org/1999/xlink" width="12px" height="12px" viewBox="789 965.5  12 12" xmlns="http://www.w3.org/2000/svg">
  <path d="M 795 965.5  C 798.36 965.5  801 968.14  801 971.5  C 801 974.86  798.36 977.5  795 977.5  C 791.64 977.5  789 974.86  789 971.5  C 789 968.14  791.64 965.5  795 965.5  Z " fill-rule="nonzero" fill="#ffffff" stroke="none" />
  <path d="M 795 966  C 798.08 966  800.5 968.42  800.5 971.5  C 800.5 974.58  798.08 977  795 977  C 791.92 977  789.5 974.58  789.5 971.5  C 789.5 968.42  791.92 966  795 966  Z " stroke-width="1" stroke="#797979" fill="none" />
  <path d="M 795 974.5  C 793.32 974.5  792 973.18  792 971.5  C 792 969.82  793.32 968.5  795 968.5  C 796.68 968.5  798 969.82  798 971.5  C 798 973.18  796.68 974.5  795 974.5  " fill-rule="nonzero" fill="#797979" stroke="none" />
</svg>