<?xml version="1.0" encoding="utf-8"?>
<svg version="1.1" xmlns:xlink="http://www.w3.org/1999/xlink" width="24px" height="24px" xmlns="http://www.w3.org/2000/svg">
  <g transform="matrix(1 0 0 1 -1662 -22 )">
    <path d="M 0 12  C 0 5.372666671875  5.37266667187498 0  12 0  C 18.6274169979696 0  24 5.37258300203048  24 12  C 24 18.627333328125  18.627333328125 24  12 24  C 5.37266667187498 24  0 18.627333328125  0 12  Z M 15.9885783197899 9.17998369309713  C 15.9885783197899 6.97530382438636  14.2046708808357 5.18629528358771  12 5.17999999218749  C 9.79086099636208 5.17999999218749  7.99999999218755 6.97086099636211  7.99999999218755 9.17999999999999  C 7.99999999218755 9.73228475414551  8.44771524585451 10.1800000078125  9 10.1800000078125  C 9.55228475414549 10.1800000078125  10.0000000078124 9.73228475414551  10.0000000078124 9.17999999999999  C 10.0000000078124 8.07543050465314  10.8954305046531 7.1800000078125  12 7.1800000078125  C 13.1045694953468 7.1800000078125  13.9999999921876 8.07543050465314  13.9999999921876 9.17999999999999  C 13.9999999921876 10.2845694953469  13.1045694953468 11.1799999921875  12 11.1799999921875  C 11.4477152458545 11.1799999921875  10.9999999921876 11.6277152458545  10.9999999921876 12.18  L 10.9999999921876 14.79  C 10.9999999921876 15.3422847541455  11.4477152458545 15.7900000078125  12 15.7900000078125  C 12.5522847541455 15.7900000078125  13.0000000078124 15.3422847541455  13.0000000078124 14.79  L 13.0000000078124 13.05  C 14.7604709703133 12.589904128263  15.9885783197899 10.9995842594297  15.9885783197899 9.17998369309713  Z M 10.9999999921876 17.8900000078125  C 10.9999999921876 18.442284761958  11.4477152458545 18.890000015625  12 18.890000015625  C 12.5522847541455 18.890000015625  13.0000000078124 18.442284761958  13.0000000078124 17.8900000078125  C 13.0000000078124 17.337715253667  12.5522847541455 16.89  12 16.89  C 11.4477152458545 16.89  10.9999999921876 17.337715253667  10.9999999921876 17.8900000078125  Z " fill-rule="nonzero" fill="#7f7f7f" stroke="none" transform="matrix(1 0 0 1 1662 22 )" />
  </g>
</svg>