<?xml version="1.0" encoding="utf-8"?>
<svg version="1.1" xmlns:xlink="http://www.w3.org/1999/xlink" width="10px" height="6px" xmlns="http://www.w3.org/2000/svg">
  <g transform="matrix(1 0 0 1 -1837 -29 )">
    <path d="M 4.66902659758193 3.27395924006907  L 7.69964214162337 0.282959585492222  C 7.8845162924581 0.098085434657456  8.10735567069651 0.00564835924006957  8.36816027633836 0.00564835924006957  C 8.62896488198044 0.00564835924006957  8.85180426021861 0.098085434657456  9.03667841105357 0.282959585492222  C 9.2281552101324 0.467833736327002  9.32389360967181 0.689022452504311  9.32389360967181 0.946525734024171  C 9.32389360967181 1.20402901554403  9.2281552101324 1.42521773172135  9.03667841105357 1.61009188255613  L 5.33259274611396 5.29436960276335  C 5.25336096718479 5.38680667818073  5.15432124352333 5.4511824985607  5.03547357512934 5.48749706390325  C 4.91662590673559 5.52381162924579  4.79117559009774 5.53866758779501  4.65912262521579 5.53206493955091  C 4.52706966033384 5.52546229130682  4.39666735751302 5.49740103626939  4.26791571675312 5.44788117443866  C 4.13916407599299 5.39836131260791  4.02856971790447 5.32738284398385  3.93613264248711 5.23494576856646  L 0.291470811744375 1.61009188255613  C 0.0999940126655474 1.42521773172135  0.00425561312613354 1.20402901554403  0.00425561312613354 0.946525734024171  C 0.00425561312613354 0.689022452504311  0.0999940126655474 0.467833736327002  0.291470811744375 0.282959585492229  C 0.38390788716174 0.190522510074835  0.48789959700639 0.121194703511804  0.603445941278096 0.0749761658031147  C 0.718992285549803 0.028757628094418  0.837839953943558 0.00564835924006957  0.959988946459362 0.00564835924006957  C 1.08213793897517 0.00564835924006957  1.20263626943006 0.028757628094418  1.32148393782381 0.0749761658031147  C 1.44033160621757 0.121194703511804  1.54597397812313 0.190522510074835  1.63841105354049 0.282959585492229  L 4.66902659758193 3.27395924006907  Z " fill-rule="nonzero" fill="#000000" stroke="none" transform="matrix(1 0 0 1 1837 29 )" />
  </g>
</svg>