<svg t="1626933317843" class="icon" viewBox="0 0 1024 1024" version="1.1" xmlns="http://www.w3.org/2000/svg" p-id="36173" width="200" height="200"><path d="M896 793.6a38.4 38.4 0 0 1 6.208 76.288L896 870.4H128a38.4 38.4 0 0 1-6.208-76.288L128 793.6h768zM300.992 363.648c3.84 3.072 6.144 7.68 6.272 12.608v271.488c0 9.856-9.6 17.856-21.376 17.856a23.68 23.68 0 0 1-15.104-5.248L108.8 524.672a15.872 15.872 0 0 1 0-25.344l162.048-135.68a24.384 24.384 0 0 1 30.208 0zM864 473.6a38.4 38.4 0 0 1 6.208 76.288L864 550.4H448a38.4 38.4 0 0 1-6.208-76.288L448 473.6h416z m32-320a38.4 38.4 0 0 1 6.208 76.288L896 230.4H128a38.4 38.4 0 0 1-6.208-76.288L128 153.6h768z" fill="#009688" p-id="36174"></path></svg>