<svg t="1628581809344" class="icon" viewBox="0 0 1024 1024" version="1.1" xmlns="http://www.w3.org/2000/svg" p-id="3722" width="200" height="200"><path d="M432.391056 380.91593h358.373375L735.029295 547.766337H487.948691l-55.557635-166.850407z" fill="#ffffff" p-id="3723"></path><path d="M675.211648 23.785058a19.880049 19.880049 0 0 1 33.370082-14.555035l191.167967 174.660426a19.880049 19.880049 0 0 1-13.490033 34.435084H695.091697a19.880049 19.880049 0 0 1-19.880049-19.880049zM464.696135 566.936384a19.880049 19.880049 0 0 0 19.170046 14.555036H745.679321a19.880049 19.880049 0 0 0 19.170046-13.490033l60.882649-200.57549A19.880049 19.880049 0 0 0 806.029468 341.865835H501.438724a19.880049 19.880049 0 1 0 0 39.760097h278.32068l-48.812619 159.75039H499.131219L433.278558 304.235743a19.880049 19.880049 0 0 0-19.170047-14.555036H249.210608a19.880049 19.880049 0 1 0 0 39.760097h149.987867z" fill="#ffffff" p-id="3724"></path><path d="M252.405616 972.347374l129.930317-111.647773 132.947825 111.647773 137.030335-111.647773 126.380308 111.647773 91.590224-71.000173V216.018027L676.454151 39.760097H169.512914a15.975039 15.975039 0 0 0-15.797539 15.797539v838.157046zM113.777778 55.557636A55.735136 55.735136 0 0 1 169.512914 0h522.383775l218.325533 198.445484v722.249264l-132.947824 103.127752-125.847808-111.115272-136.320332 111.115272-132.237823-111.115272-129.575317 111.292772L113.777778 912.884729z m410.203501 706.451724a67.450165 67.450165 0 1 1 67.627665-67.450164 67.627665 67.627665 0 0 1-67.627665 67.450164z m0-31.772577a35.500087 35.500087 0 1 0-35.500086-35.500087 35.500087 35.500087 0 0 0 35.500086 35.500087z m183.180447 31.772577a67.450165 67.450165 0 1 1 67.627666-67.450164 67.627665 67.627665 0 0 1-67.627666 67.450164z m0-31.772577a35.500087 35.500087 0 1 0-35.500086-35.500087 35.500087 35.500087 0 0 0 35.500086 35.500087z" fill="#ffffff" p-id="3725"></path><path d="M249.210608 452.448605h111.470273a19.880049 19.880049 0 1 0 0-39.760097H249.210608a19.880049 19.880049 0 1 0 0 39.760097z" fill="#ffffff" p-id="3726"></path><path d="M249.210608 571.551395h111.470273a19.880049 19.880049 0 1 0 0-39.760097H249.210608a19.880049 19.880049 0 1 0 0 39.760097zM249.210608 694.559196h143.24285a19.880049 19.880049 0 1 0 0-39.760097H249.210608a19.880049 19.880049 0 1 0 0 39.760097z" fill="#ffffff" p-id="3727"></path><path d="M714.971746 178.565436h120.167793l-120.167793-109.695268v109.695268z" fill="#ffffff" p-id="3728"></path><path d="M488.126192 694.559196a35.855088 35.677587 0 1 0 71.710175 0 35.855088 35.677587 0 1 0-71.710175 0Z" fill="#ffffff" p-id="3729"></path><path d="M671.306639 694.559196a35.855088 35.677587 0 1 0 71.710175 0 35.855088 35.677587 0 1 0-71.710175 0Z" fill="#ffffff" p-id="3730"></path></svg>