<?xml version="1.0" encoding="utf-8"?>
<svg version="1.1" xmlns:xlink="http://www.w3.org/1999/xlink" width="9px" height="5px" xmlns="http://www.w3.org/2000/svg">
  <defs>
    <mask fill="white" id="clip20">
      <path d="M 5.13596781738281 4.6512784375  C 4.967296171875 4.81994108300781  4.73852728125 4.91470982617188  4.5 4.91470982617188  C 4.26147271875 4.91470982617188  4.032703828125 4.81995007421875  3.86404118261719 4.65128742871094  L 0.833401951171875 1.62064819726562  C 0.48217208203125 1.269418328125  0.48217208203125 0.699951431640625  0.833401951171875 0.3487215625  C 1.18464081152344 -0.00250830664062529  1.75409871679687 -0.00250830664062529  2.1053285859375 0.3487215625  L 4.49999100878906 2.74338398535156  L 6.89465343164062 0.3487215625  C 7.24589229199219 -0.00250830664062485  7.81535019726562 -0.00250830664062485  8.16658905761719 0.3487215625  C 8.51781892675781 0.699960422851563  8.51781892675781 1.269418328125  8.16658905761719 1.62064819726562  L 5.13596781738281 4.6512784375  Z " fill-rule="evenodd" />
    </mask>
  </defs>
  <g transform="matrix(1 0 0 1 -181 -128 )">
    <path d="M 5.13596781738281 4.6512784375  C 4.967296171875 4.81994108300781  4.73852728125 4.91470982617188  4.5 4.91470982617188  C 4.26147271875 4.91470982617188  4.032703828125 4.81995007421875  3.86404118261719 4.65128742871094  L 0.833401951171875 1.62064819726562  C 0.48217208203125 1.269418328125  0.48217208203125 0.699951431640625  0.833401951171875 0.3487215625  C 1.18464081152344 -0.00250830664062529  1.75409871679687 -0.00250830664062529  2.1053285859375 0.3487215625  L 4.49999100878906 2.74338398535156  L 6.89465343164062 0.3487215625  C 7.24589229199219 -0.00250830664062485  7.81535019726562 -0.00250830664062485  8.16658905761719 0.3487215625  C 8.51781892675781 0.699960422851563  8.51781892675781 1.269418328125  8.16658905761719 1.62064819726562  L 5.13596781738281 4.6512784375  Z " fill-rule="nonzero" fill="#000000" stroke="none" transform="matrix(1 0 0 1 181 128 )" />
    <path d="M 5.13596781738281 4.6512784375  C 4.967296171875 4.81994108300781  4.73852728125 4.91470982617188  4.5 4.91470982617188  C 4.26147271875 4.91470982617188  4.032703828125 4.81995007421875  3.86404118261719 4.65128742871094  L 0.833401951171875 1.62064819726562  C 0.48217208203125 1.269418328125  0.48217208203125 0.699951431640625  0.833401951171875 0.3487215625  C 1.18464081152344 -0.00250830664062529  1.75409871679687 -0.00250830664062529  2.1053285859375 0.3487215625  L 4.49999100878906 2.74338398535156  L 6.89465343164062 0.3487215625  C 7.24589229199219 -0.00250830664062485  7.81535019726562 -0.00250830664062485  8.16658905761719 0.3487215625  C 8.51781892675781 0.699960422851563  8.51781892675781 1.269418328125  8.16658905761719 1.62064819726562  L 5.13596781738281 4.6512784375  Z " stroke-width="2" stroke="#797979" fill="none" transform="matrix(1 0 0 1 181 128 )" mask="url(#clip20)" />
  </g>
</svg>