<?xml version="1.0" encoding="utf-8"?>
<svg version="1.1" xmlns:xlink="http://www.w3.org/1999/xlink" width="12px" height="12px" viewBox="1063 1166.5  12 12" xmlns="http://www.w3.org/2000/svg">
  <path d="M 1069 1166.5  C 1072.36 1166.5  1075 1169.14  1075 1172.5  C 1075 1175.86  1072.36 1178.5  1069 1178.5  C 1065.64 1178.5  1063 1175.86  1063 1172.5  C 1063 1169.14  1065.64 1166.5  1069 1166.5  Z " fill-rule="nonzero" fill="#ffffff" stroke="none" />
  <path d="M 1069 1167  C 1072.08 1167  1074.5 1169.42  1074.5 1172.5  C 1074.5 1175.58  1072.08 1178  1069 1178  C 1065.92 1178  1063.5 1175.58  1063.5 1172.5  C 1063.5 1169.42  1065.92 1167  1069 1167  Z " stroke-width="1" stroke="#797979" fill="none" />
  <path d="M 1069 1175.5  C 1067.32 1175.5  1066 1174.18  1066 1172.5  C 1066 1170.82  1067.32 1169.5  1069 1169.5  C 1070.68 1169.5  1072 1170.82  1072 1172.5  C 1072 1174.18  1070.68 1175.5  1069 1175.5  " fill-rule="nonzero" fill="#797979" stroke="none" />
</svg>