<?xml version="1.0" encoding="utf-8"?>
<svg version="1.1" xmlns:xlink="http://www.w3.org/1999/xlink" width="91px" height="52px" xmlns="http://www.w3.org/2000/svg">
  <g transform="matrix(1 0 0 1 -467 -781 )">
    <path d="M 467 781  L 558 781  L 558 833  L 467 833  L 467 781  " fill-rule="nonzero" fill="#cccccc" stroke="none" />
    <path d="M 471 785  L 554 785  L 554 829  L 471 829  L 471 785  " fill-rule="nonzero" fill="#ffffff" stroke="none" />
    <path d="M 518.22 796.6  C 516.036 796.6  514.32 794.884  514.32 792.7  C 514.32 790.516  516.036 788.8  518.22 788.8  C 520.404 788.8  522.12 790.516  522.12 792.7  C 522.12 794.884  520.404 796.6  518.22 796.6  " fill-rule="nonzero" fill="#cccccc" stroke="none" />
    <path d="M 473 828  L 473 805.45  L 493 795.2  L 521 813.942857142857  L 537 801.35  L 553 813.942857142857  L 553 828  L 473 828  " fill-rule="nonzero" fill="#169bd5" stroke="none" />
  </g>
</svg>