<?xml version="1.0" encoding="utf-8"?>
<svg version="1.1" xmlns:xlink="http://www.w3.org/1999/xlink" width="12px" height="12px" viewBox="836 689.5  12 12" xmlns="http://www.w3.org/2000/svg">
  <path d="M 842 689.5  C 845.36 689.5  848 692.14  848 695.5  C 848 698.86  845.36 701.5  842 701.5  C 838.64 701.5  836 698.86  836 695.5  C 836 692.14  838.64 689.5  842 689.5  Z " fill-rule="nonzero" fill="#ffffff" stroke="none" />
  <path d="M 842 690  C 845.08 690  847.5 692.42  847.5 695.5  C 847.5 698.58  845.08 701  842 701  C 838.92 701  836.5 698.58  836.5 695.5  C 836.5 692.42  838.92 690  842 690  Z " stroke-width="1" stroke="#797979" fill="none" />
  <path d="M 842 698.5  C 840.32 698.5  839 697.18  839 695.5  C 839 693.82  840.32 692.5  842 692.5  C 843.68 692.5  845 693.82  845 695.5  C 845 697.18  843.68 698.5  842 698.5  " fill-rule="nonzero" fill="#797979" stroke="none" />
</svg>