<?xml version="1.0" encoding="utf-8"?>
<svg version="1.1" xmlns:xlink="http://www.w3.org/1999/xlink" width="12px" height="12px" viewBox="676 689.5  12 12" xmlns="http://www.w3.org/2000/svg">
  <path d="M 682 689.5  C 685.36 689.5  688 692.14  688 695.5  C 688 698.86  685.36 701.5  682 701.5  C 678.64 701.5  676 698.86  676 695.5  C 676 692.14  678.64 689.5  682 689.5  Z " fill-rule="nonzero" fill="#ffffff" stroke="none" />
  <path d="M 682 690  C 685.08 690  687.5 692.42  687.5 695.5  C 687.5 698.58  685.08 701  682 701  C 678.92 701  676.5 698.58  676.5 695.5  C 676.5 692.42  678.92 690  682 690  Z " stroke-width="1" stroke="#797979" fill="none" />
  <path d="M 682 698.5  C 680.32 698.5  679 697.18  679 695.5  C 679 693.82  680.32 692.5  682 692.5  C 683.68 692.5  685 693.82  685 695.5  C 685 697.18  683.68 698.5  682 698.5  " fill-rule="nonzero" fill="#797979" stroke="none" />
</svg>