<?xml version="1.0" encoding="utf-8"?>
<svg version="1.1" xmlns:xlink="http://www.w3.org/1999/xlink" width="12px" height="12px" viewBox="689 549.5  12 12" xmlns="http://www.w3.org/2000/svg">
  <path d="M 695 549.5  C 698.36 549.5  701 552.14  701 555.5  C 701 558.86  698.36 561.5  695 561.5  C 691.64 561.5  689 558.86  689 555.5  C 689 552.14  691.64 549.5  695 549.5  Z " fill-rule="nonzero" fill="#ffffff" stroke="none" />
  <path d="M 695 550  C 698.08 550  700.5 552.42  700.5 555.5  C 700.5 558.58  698.08 561  695 561  C 691.92 561  689.5 558.58  689.5 555.5  C 689.5 552.42  691.92 550  695 550  Z " stroke-width="1" stroke="#797979" fill="none" />
  <path d="M 695 558.5  C 693.32 558.5  692 557.18  692 555.5  C 692 553.82  693.32 552.5  695 552.5  C 696.68 552.5  698 553.82  698 555.5  C 698 557.18  696.68 558.5  695 558.5  " fill-rule="nonzero" fill="#797979" stroke="none" />
</svg>