<?xml version="1.0" encoding="utf-8"?>
<svg version="1.1" xmlns:xlink="http://www.w3.org/1999/xlink" width="12px" height="12px" viewBox="804 549.5  12 12" xmlns="http://www.w3.org/2000/svg">
  <path d="M 810 549.5  C 813.36 549.5  816 552.14  816 555.5  C 816 558.86  813.36 561.5  810 561.5  C 806.64 561.5  804 558.86  804 555.5  C 804 552.14  806.64 549.5  810 549.5  Z " fill-rule="nonzero" fill="#ffffff" stroke="none" />
  <path d="M 810 550  C 813.08 550  815.5 552.42  815.5 555.5  C 815.5 558.58  813.08 561  810 561  C 806.92 561  804.5 558.58  804.5 555.5  C 804.5 552.42  806.92 550  810 550  Z " stroke-width="1" stroke="#797979" fill="none" />
  <path d="M 810 558.5  C 808.32 558.5  807 557.18  807 555.5  C 807 553.82  808.32 552.5  810 552.5  C 811.68 552.5  813 553.82  813 555.5  C 813 557.18  811.68 558.5  810 558.5  " fill-rule="nonzero" fill="#797979" stroke="none" />
</svg>