<?xml version="1.0" encoding="utf-8"?>
<svg version="1.1" xmlns:xlink="http://www.w3.org/1999/xlink" width="12px" height="12px" viewBox="537 1281.5  12 12" xmlns="http://www.w3.org/2000/svg">
  <path d="M 543 1281.5  C 546.36 1281.5  549 1284.14  549 1287.5  C 549 1290.86  546.36 1293.5  543 1293.5  C 539.64 1293.5  537 1290.86  537 1287.5  C 537 1284.14  539.64 1281.5  543 1281.5  Z " fill-rule="nonzero" fill="#ffffff" stroke="none" />
  <path d="M 543 1282  C 546.08 1282  548.5 1284.42  548.5 1287.5  C 548.5 1290.58  546.08 1293  543 1293  C 539.92 1293  537.5 1290.58  537.5 1287.5  C 537.5 1284.42  539.92 1282  543 1282  Z " stroke-width="1" stroke="#797979" fill="none" />
  <path d="M 543 1290.5  C 541.32 1290.5  540 1289.18  540 1287.5  C 540 1285.82  541.32 1284.5  543 1284.5  C 544.68 1284.5  546 1285.82  546 1287.5  C 546 1289.18  544.68 1290.5  543 1290.5  " fill-rule="nonzero" fill="#797979" stroke="none" />
</svg>