<?xml version="1.0" encoding="utf-8"?>
<svg version="1.1" xmlns:xlink="http://www.w3.org/1999/xlink" width="55px" height="32px" xmlns="http://www.w3.org/2000/svg">
  <g transform="matrix(1 0 0 1 -721 -942 )">
    <path d="M 721 942  L 776 942  L 776 974  L 721 974  L 721 942  " fill-rule="nonzero" fill="#cccccc" stroke="none" />
    <path d="M 723 944  L 774 944  L 774 972  L 723 972  L 723 944  " fill-rule="nonzero" fill="#ffffff" stroke="none" />
    <path d="M 752 951.6  C 750.656 951.6  749.6 950.544  749.6 949.2  C 749.6 947.856  750.656 946.8  752 946.8  C 753.344 946.8  754.4 947.856  754.4 949.2  C 754.4 950.544  753.344 951.6  752 951.6  " fill-rule="nonzero" fill="#cccccc" stroke="none" />
    <path d="M 724 971  L 724 956.7  L 736.25 950.2  L 753.4 961.923636363636  L 763.2 954.1  L 773 961.923636363636  L 773 971  L 724 971  " fill-rule="nonzero" fill="#169bd5" stroke="none" />
  </g>
</svg>